<svg xmlns="http://www.w3.org/2000/svg" viewBox="0 0 64 64" role="img" aria-label="JB">
  <defs>
    <linearGradient id="bg" x1="0" x2="1" y1="0" y2="1">
      <stop offset="0%" stop-color="#121010" />
      <stop offset="100%" stop-color="#060606" />
    </linearGradient>
  </defs>
  <rect width="64" height="64" rx="14" fill="url(#bg)" />
  <rect x="4" y="4" width="56" height="56" rx="12" fill="none" stroke="#b3202d" stroke-opacity="0.45" />
  <path d="M22 18h8v21c0 5.7-3.1 9-9.3 9-2.1 0-4.1-.3-5.7-1.1v-6.5c1.3.7 2.7 1 4.2 1 1.9 0 2.8-.9 2.8-3V18Z" fill="#f4efe6" />
  <path d="M36 18h9.5c6.5 0 10.5 2.8 10.5 8.2 0 3.4-1.8 5.8-4.8 6.9 3.9 1 6.3 3.9 6.3 8 0 6-4.6 9.9-11.8 9.9H36V18Zm8.7 12.2c2.2 0 3.4-.9 3.4-2.7s-1.2-2.6-3.4-2.6H44v5.3h.7Zm.8 13.7c2.7 0 4.2-1.1 4.2-3.2 0-2-1.5-3.1-4.2-3.1H44v6.3h1.5Z" fill="#f4efe6" fill-opacity="0.92" />
</svg>